<svg width="80" height="74" viewBox="0 0 80 74" fill="none" xmlns="http://www.w3.org/2000/svg">
<path d="M78.5 37C78.5 56.4981 61.3752 72.5 40 72.5C18.6248 72.5 1.5 56.4981 1.5 37C1.5 17.5019 18.6248 1.5 40 1.5C61.3752 1.5 78.5 17.5019 78.5 37Z" stroke="white" stroke-width="3"/>
<g clip-path="url(#clip0_62_74)">
<path d="M27.4919 20.7922H52.5081C53.455 20.7922 54.3156 21.1827 54.9381 21.8088L54.9906 21.8673C55.5841 22.4897 55.9506 23.3337 55.9506 24.2541V49.746C55.9506 50.6928 55.5616 51.5575 54.9381 52.1856L54.9344 52.1893C54.31 52.8164 53.4503 53.2078 52.5081 53.2078H27.4919C26.5497 53.2078 25.6891 52.8174 25.0647 52.1903C24.4384 51.5632 24.0494 50.6975 24.0494 49.746V24.2541C24.0494 23.3016 24.4366 22.435 25.06 21.8088L25.1172 21.756C25.7359 21.16 26.5741 20.7922 27.4919 20.7922ZM31.66 36.6322C32.3941 36.6322 33.0625 36.9331 33.5472 37.4197L33.5509 37.4234C34.0356 37.9129 34.3337 38.5843 34.3337 39.3218C34.3337 40.063 34.0347 40.7363 33.5509 41.2229L33.5003 41.27C33.2359 41.5218 32.9209 41.7208 32.5731 41.8481V45.8022H41.7297C42.1816 45.8022 42.5481 46.17 42.5481 46.6245V51.384H52.5081C52.9534 51.384 53.3612 51.1992 53.6575 50.9021C53.9537 50.6032 54.1375 50.193 54.1375 49.746V24.2541C54.1375 23.8241 53.9687 23.4289 53.695 23.1347L53.6566 23.0979C53.3613 22.8009 52.9544 22.6161 52.5081 22.6161H50.185V35.6986C50.185 36.1532 49.8194 36.5219 49.3666 36.5219H45.7816C45.6531 36.9548 45.4178 37.3442 45.1075 37.6564C44.6256 38.1449 43.9562 38.4466 43.2184 38.4466C42.4853 38.4466 41.8169 38.1449 41.3322 37.6583L41.3284 37.6554C40.8438 37.166 40.5456 36.4946 40.5456 35.7571C40.5456 35.015 40.8447 34.3416 41.3284 33.855C41.8122 33.3694 42.4816 33.0676 43.2184 33.0676C43.9562 33.0676 44.6256 33.3694 45.1094 33.856L45.1553 33.9069C45.415 34.1823 45.6184 34.5114 45.7441 34.8754H48.5491V22.6161H27.4919C27.0625 22.6161 26.6697 22.7849 26.3772 23.0593L26.3416 23.0979C26.0462 23.395 25.8625 23.8052 25.8625 24.2541V27.5613H40.0581V26.9719C40.0581 26.6437 40.1913 26.3457 40.405 26.1307C40.6188 25.9157 40.9159 25.7818 41.2412 25.7818H44.0266C44.3528 25.7818 44.6491 25.9157 44.8628 26.1307C45.0756 26.3457 45.2097 26.6437 45.2097 26.9719V29.7963C45.2097 30.1235 45.0756 30.4224 44.8628 30.6365C44.6491 30.8515 44.3528 30.9854 44.0266 30.9854H41.2412C40.9159 30.9854 40.6188 30.8515 40.405 30.6365C40.1913 30.4224 40.0581 30.1235 40.0581 29.7963V29.2069H25.8625V32.7809H37.24C37.6919 32.7809 38.0584 33.1497 38.0584 33.6042V41.6953H45.3025V40.8815C45.3025 40.5411 45.4412 40.2308 45.6625 40.0083C45.8847 39.7848 46.1931 39.6452 46.5316 39.6452H49.6234C49.9628 39.6452 50.2703 39.7848 50.4925 40.0083C50.7138 40.2308 50.8525 40.5411 50.8525 40.8815V44.0161C50.8525 44.3575 50.7138 44.6668 50.4925 44.8903C50.2703 45.1138 49.9628 45.2534 49.6234 45.2534H46.5316C46.1931 45.2534 45.8847 45.1138 45.6625 44.8903C45.4412 44.6668 45.3025 44.3575 45.3025 44.0161V43.3419H37.24C36.7881 43.3419 36.4216 42.9731 36.4216 42.5186V34.4265H25.8625V49.746C25.8625 50.1939 26.0472 50.6041 26.3425 50.9012C26.6378 51.1992 27.0456 51.384 27.4919 51.384H40.9113V47.4478H31.7556C31.3037 47.4478 30.9372 47.0791 30.9372 46.6245V41.9113C30.49 41.7849 30.0897 41.5445 29.77 41.2229C29.2863 40.7363 28.9872 40.063 28.9872 39.3218C28.9872 38.5824 29.2872 37.9091 29.7719 37.4216C30.2537 36.9331 30.9222 36.6322 31.66 36.6322ZM32.4766 38.4966C32.2703 38.2891 31.9816 38.1599 31.66 38.1599C31.3412 38.1599 31.0525 38.2901 30.8434 38.5004C30.6334 38.7078 30.5059 38.9983 30.5059 39.3218C30.5059 39.6424 30.6353 39.9328 30.8434 40.1431C31.0525 40.3525 31.3412 40.4826 31.66 40.4826C31.9656 40.4826 32.2412 40.3666 32.4456 40.1761L32.4766 40.1431C32.6856 39.9328 32.815 39.6424 32.815 39.3218C32.815 38.9983 32.6866 38.7078 32.4803 38.5004L32.4766 38.4966ZM49.3337 41.1729H46.8213V43.7247H49.3337V41.1729ZM44.035 34.9357C43.8269 34.7264 43.5381 34.5963 43.2184 34.5963C42.8997 34.5963 42.6109 34.7254 42.4028 34.9357C42.1938 35.1451 42.0644 35.4365 42.0644 35.7571C42.0644 36.0796 42.1928 36.3701 42.3991 36.5785L42.4028 36.5813C42.6091 36.7897 42.8978 36.918 43.2184 36.918C43.5381 36.918 43.8269 36.7878 44.035 36.5785C44.2159 36.3993 44.3359 36.1598 44.3659 35.891C44.3519 35.8288 44.3434 35.7647 44.3434 35.6986C44.3434 35.6496 44.3481 35.6015 44.3566 35.5544C44.3172 35.329 44.215 35.1262 44.0687 34.9678L44.035 34.9357ZM43.69 27.3095H41.5769V29.4577H43.69V27.3095ZM16 45.4759V48.3541C16 48.6502 16.2409 48.8925 16.5353 48.8925H20.7391C21.0334 48.8925 21.2744 48.6502 21.2744 48.3541V45.4759C21.2744 45.1798 21.0334 44.9375 20.7391 44.9375H16.5353C16.2409 44.9375 16 45.1798 16 45.4759ZM16 38.8663V41.7444C16 42.0405 16.2409 42.2829 16.5353 42.2829H20.7391C21.0334 42.2829 21.2744 42.0405 21.2744 41.7444V38.8663C21.2744 38.5702 21.0334 38.3278 20.7391 38.3278H16.5353C16.2409 38.3278 16 38.5702 16 38.8663ZM16 32.2566V35.1347C16 35.4308 16.2409 35.6732 16.5353 35.6732H20.7391C21.0334 35.6732 21.2744 35.4308 21.2744 35.1347V32.2566C21.2744 31.9605 21.0334 31.7181 20.7391 31.7181H16.5353C16.2409 31.7181 16 31.9605 16 32.2566ZM16 25.6469V28.5251C16 28.8212 16.2409 29.0635 16.5353 29.0635H20.7391C21.0334 29.0635 21.2744 28.8212 21.2744 28.5251V25.6469C21.2744 25.3508 21.0334 25.1085 20.7391 25.1085H16.5353C16.2409 25.1085 16 25.3508 16 25.6469ZM64 45.4759V48.3541C64 48.6502 63.7591 48.8925 63.4647 48.8925H59.26C58.9666 48.8925 58.7256 48.6502 58.7256 48.3541V45.4759C58.7256 45.1798 58.9666 44.9375 59.26 44.9375H63.4647C63.7591 44.9375 64 45.1798 64 45.4759ZM64 38.8663V41.7444C64 42.0405 63.7591 42.2829 63.4647 42.2829H59.26C58.9666 42.2829 58.7256 42.0405 58.7256 41.7444V38.8663C58.7256 38.5702 58.9666 38.3278 59.26 38.3278H63.4647C63.7591 38.3278 64 38.5702 64 38.8663ZM64 32.2566V35.1347C64 35.4308 63.7591 35.6732 63.4647 35.6732H59.26C58.9666 35.6732 58.7256 35.4308 58.7256 35.1347V32.2566C58.7256 31.9605 58.9666 31.7181 59.26 31.7181H63.4647C63.7591 31.7181 64 31.9605 64 32.2566ZM64 25.6469V28.5251C64 28.8212 63.7591 29.0635 63.4647 29.0635H59.26C58.9666 29.0635 58.7256 28.8212 58.7256 28.5251V25.6469C58.7256 25.3508 58.9666 25.1085 59.26 25.1085H63.4647C63.7591 25.1085 64 25.3508 64 25.6469ZM48.4253 60.9925H51.2866C51.5809 60.9925 51.8219 60.7501 51.8219 60.454V56.2255C51.8219 55.9294 51.5809 55.687 51.2866 55.687H48.4253C48.1309 55.687 47.89 55.9294 47.89 56.2255V60.454C47.89 60.7501 48.1309 60.9925 48.4253 60.9925ZM41.8553 60.9925H44.7166C45.0109 60.9925 45.2509 60.7501 45.2509 60.454V56.2255C45.2509 55.9294 45.0109 55.687 44.7166 55.687H41.8553C41.5609 55.687 41.32 55.9294 41.32 56.2255V60.454C41.32 60.7501 41.5609 60.9925 41.8553 60.9925ZM35.2844 60.9925H38.1456C38.4391 60.9925 38.68 60.7501 38.68 60.454V56.2255C38.68 55.9294 38.4391 55.687 38.1456 55.687H35.2844C34.99 55.687 34.7491 55.9294 34.7491 56.2255V60.454C34.7491 60.7501 34.99 60.9925 35.2844 60.9925ZM28.7134 60.9925H31.5747C31.8691 60.9925 32.1091 60.7501 32.1091 60.454V56.2255C32.1091 55.9294 31.8691 55.687 31.5747 55.687H28.7134C28.4191 55.687 28.1781 55.9294 28.1781 56.2255V60.454C28.1781 60.7501 28.4191 60.9925 28.7134 60.9925ZM48.4253 13.0076H51.2866C51.5809 13.0076 51.8219 13.2499 51.8219 13.546V17.7755C51.8219 18.0707 51.5809 18.313 51.2866 18.313H48.4253C48.1309 18.313 47.89 18.0707 47.89 17.7755V13.546C47.89 13.2499 48.1309 13.0076 48.4253 13.0076ZM41.8553 13.0076H44.7166C45.0109 13.0076 45.2509 13.2499 45.2509 13.546V17.7755C45.2509 18.0707 45.0109 18.313 44.7166 18.313H41.8553C41.5609 18.313 41.32 18.0707 41.32 17.7755V13.546C41.32 13.2499 41.5609 13.0076 41.8553 13.0076ZM35.2844 13.0076H38.1456C38.4391 13.0076 38.68 13.2499 38.68 13.546V17.7755C38.68 18.0707 38.4391 18.313 38.1456 18.313H35.2844C34.99 18.313 34.7491 18.0707 34.7491 17.7755V13.546C34.7491 13.2499 34.99 13.0076 35.2844 13.0076ZM28.7134 13.0076H31.5747C31.8691 13.0076 32.1091 13.2499 32.1091 13.546V17.7755C32.1091 18.0707 31.8691 18.313 31.5747 18.313H28.7134C28.4191 18.313 28.1781 18.0707 28.1781 17.7755V13.546C28.1781 13.2499 28.4191 13.0076 28.7134 13.0076Z" fill="white"/>
</g>
<defs>
<clipPath id="clip0_62_74">
<rect width="48" height="48" fill="white" transform="translate(16 13)"/>
</clipPath>
</defs>
</svg>
