<svg width="80" height="74" viewBox="0 0 80 74" fill="none" xmlns="http://www.w3.org/2000/svg">
<path d="M78.5 37C78.5 56.4981 61.3752 72.5 40 72.5C18.6248 72.5 1.5 56.4981 1.5 37C1.5 17.5019 18.6248 1.5 40 1.5C61.3752 1.5 78.5 17.5019 78.5 37Z" stroke="white" stroke-width="3"/>
<g clip-path="url(#clip0_61_62)">
<path d="M62.5952 22.1863C62.2427 21.4624 62.5495 20.5917 63.2802 20.2424C64.0109 19.893 64.8896 20.197 65.2421 20.921C67.6411 25.8527 68.9526 31.6434 68.9988 37.3936C69.0423 42.9187 67.9192 48.4221 65.4713 53.1128C65.0998 53.8273 64.2133 54.1083 63.492 53.7401C62.7709 53.3721 62.4875 52.4935 62.8589 51.779C65.0834 47.5164 66.1036 42.4862 66.0637 37.4164C66.0214 32.0935 64.8098 26.7396 62.5952 22.1863ZM39.7472 36.9997V54.0654C39.7472 54.9145 39.4024 55.6295 38.8725 56.146C38.3123 56.6922 37.5582 56.9988 36.7723 57V56.9947C36.0519 56.9943 35.3213 56.7391 34.7322 56.1766L26.9974 49.95H17.4022C15.6451 49.95 14.0443 49.2374 12.8847 48.0891C11.7219 46.9383 11 45.353 11 43.6112V32.0062C11 30.2641 11.7219 28.6791 12.8847 27.5284C14.0443 26.3801 15.6451 25.6676 17.4022 25.6676H26.9093L34.6722 17.8817C35.2752 17.2735 36.0301 17 36.7723 17C37.1598 17 37.5458 17.0767 37.9028 17.2209C38.2644 17.3674 38.5938 17.5823 38.8725 17.8536C39.4015 18.37 39.7472 19.0838 39.7472 19.9342V36.9997ZM36.9727 54.0654V19.9342C36.9727 19.8742 36.9566 19.8315 36.9323 19.8078C36.9172 19.7931 36.8925 19.7785 36.862 19.7662C36.8335 19.7548 36.803 19.749 36.7723 19.7491C36.7283 19.7491 36.6818 19.7666 36.6444 19.8042L28.5397 27.9328C28.4096 28.0846 28.2477 28.2065 28.0652 28.29C27.8828 28.3736 27.6842 28.4168 27.4832 28.4167H17.4022C16.4025 28.4167 15.4933 28.8206 14.8355 29.472C14.1809 30.1197 13.7745 31.0169 13.7745 32.0062V43.6112C13.7745 44.601 14.1809 45.4977 14.8355 46.1455C15.4933 46.7969 16.4025 47.2009 17.4022 47.2009H27.4832V47.2054C27.8011 47.2047 28.1094 47.3132 28.3558 47.5123L36.5057 54.0731C36.5539 54.1103 36.6003 54.151 36.6444 54.1955C36.6855 54.237 36.7319 54.2562 36.7723 54.2562V54.2509C36.804 54.2509 36.8348 54.2447 36.862 54.2337C36.892 54.222 36.9172 54.2068 36.9323 54.1918C36.9566 54.1681 36.9727 54.1253 36.9727 54.0654ZM47.6618 32.2537C47.4046 31.4918 47.8192 30.6668 48.5882 30.412C49.3571 30.1572 50.1898 30.5681 50.4469 31.3301C50.9529 32.8186 51.1969 35.1295 51.1562 37.3271C51.1166 39.4806 50.7991 41.5967 50.1844 42.8465C49.829 43.5705 48.9474 43.8716 48.2167 43.5195C47.4861 43.1673 47.182 42.2938 47.5375 41.5697C47.9645 40.7011 48.1888 39.0424 48.2213 37.2815C48.2566 35.3811 48.0645 33.4379 47.6618 32.2537ZM55.2558 26.8106C54.9444 26.0675 55.2999 25.2147 56.0498 24.9061C56.7998 24.5974 57.6604 24.9497 57.972 25.6928C59.3403 28.9388 60.0786 33.0279 60.1404 37.0919C60.2017 41.0953 59.6051 45.1044 58.3076 48.2897C58.0061 49.0356 57.1499 49.3981 56.397 49.0992C55.6441 48.8004 55.2785 47.9521 55.58 47.2062C56.7323 44.3776 57.2613 40.766 57.2054 37.1261C57.1491 33.4289 56.4855 29.7272 55.2558 26.8106Z" fill="white"/>
</g>
<defs>
<clipPath id="clip0_61_62">
<rect width="58" height="40" fill="white" transform="translate(11 17)"/>
</clipPath>
</defs>
</svg>
